<?xml version="1.0" encoding="UTF-8"?>
<svg width="158px" height="80px" viewBox="0 0 158 80" version="1.1" xmlns="http://www.w3.org/2000/svg" xmlns:xlink="http://www.w3.org/1999/xlink">
    <!-- Generator: Sketch 63.1 (92452) - https://sketch.com -->
    <title>02 - Logos / Sans signature</title>
    <desc>Created with Sketch.</desc>
    <defs>
        <polygon id="path-1" points="0.601220526 0.41238185 11.6133816 0.41238185 11.6133816 16.7619048 0.601220526 16.7619048"></polygon>
    </defs>
    <g id="LOT-1" stroke="none" stroke-width="1" fill="none" fill-rule="evenodd">
        <g id="00_HOMEPAGE-GENERIQUE-V8" transform="translate(-39.000000, -21.000000)">
            <g id="Navigation" transform="translate(39.000000, 21.000000)">
                <g id="Logo">
                    <g id="05---Logos-/-Sans-signature">
                        <g id="Group-83" transform="translate(0.763285, 0.761905)">
                            <path d="M123.110394,71.0143238 C122.785998,72.0459429 121.739534,72.7948952 121.267824,72.7948952 C120.367148,72.7948952 121.046471,71.0813714 121.193022,70.6988952 C121.340336,70.316419 121.764723,69.2726095 121.983786,68.8954667 C122.202848,68.5175619 122.514269,68.3895619 122.964607,68.6569905 C123.414945,68.924419 123.498906,69.7808 123.110394,71.0143238 M123.603476,67.9598476 C123.214964,67.7838476 122.755467,68.0802286 122.755467,68.0802286 C122.755467,68.0802286 122.541747,67.8310857 122.262385,67.8310857 C121.721215,67.8310857 121.160964,68.8528 120.54423,70.3606095 C120.457215,70.5739429 120.378597,70.7933714 120.310665,71.0128 C120.262578,71.0600381 120.213728,71.1080381 120.162587,71.1575619 C118.965757,72.3529905 117.971196,72.7948952 116.64537,72.7948952 C116.129389,72.7948952 115.761486,72.4817524 115.761486,71.9118476 C115.761486,70.9747048 117.787244,68.3278476 118.763486,68.2714667 C119.058114,68.3461333 119.352742,68.2356571 119.352742,67.9225143 C119.352742,67.6474667 119.039795,67.500419 118.763486,67.500419 C117.252945,67.500419 115.006597,70.4596571 115.006597,71.9118476 C115.006597,72.8680381 115.669129,73.5667048 116.627051,73.5667048 C117.986462,73.5667048 119.213824,72.8619429 120.075573,72.0642286 L120.103814,71.948419 C119.997718,72.845181 120.237389,73.5667048 121.193786,73.5667048 C122.083013,73.5667048 123.272211,72.9815619 124.038549,70.9046095 C124.691157,69.1385143 123.990462,68.1358476 123.603476,67.9598476" id="Fill-1" fill="#EB520D"></path>
                            <path d="M133.991709,69.5776 C134.286337,69.153981 134.599284,68.8240762 135.022907,68.6214095 C135.096946,68.5848381 135.170221,68.6031238 135.225178,68.657981 C135.280898,68.7128381 135.280898,68.7684571 135.261815,68.8423619 C135.133584,69.3383619 134.636685,69.6697905 134.19398,69.9448381 C134.028347,70.0553143 133.734482,70.1657905 133.734482,70.0736 C133.789439,69.9448381 133.862714,69.7429333 133.991709,69.5776 M142.573323,70.0553143 C142.426009,70.0553143 142.242057,70.2945524 141.965748,70.5886476 C141.818434,70.7905524 141.633719,70.9566476 141.431448,71.1585524 C140.234617,72.353219 139.240057,72.7943619 137.913468,72.7943619 C137.39825,72.7943619 137.030347,72.4827429 137.030347,71.9120762 C137.030347,70.9749333 139.056105,68.3273143 140.031584,68.2716952 C140.326975,68.3456 140.621603,68.2351238 140.621603,67.9227429 C140.621603,67.6469333 140.307893,67.5006476 140.031584,67.5006476 C138.521806,67.5006476 136.274695,70.4598857 136.274695,71.9120762 C136.274695,71.9494095 136.277748,71.985981 136.280038,72.0225524 C136.271642,72.0294095 136.265535,72.033981 136.257139,72.0408381 C135.833516,72.353219 135.318299,72.7943619 134.489371,72.7943619 C133.826076,72.7943619 133.088743,72.4454095 133.088743,71.7650286 C133.088743,71.5440762 133.200183,71.1585524 133.329178,70.8088381 C134.397014,70.9566476 136.054105,69.7977905 136.054105,68.7501714 C136.054105,68.2534095 135.667883,67.8678857 135.170221,67.8678857 C134.097043,67.8678857 133.044472,69.3048381 132.580395,70.5833143 C131.844588,71.4915048 130.700424,72.7943619 130.195893,72.7943619 C129.698231,72.7943619 129.569236,71.7284571 129.569236,71.2134095 C129.569236,70.2671238 130.142463,68.1581714 130.797361,65.8823619 C131.082067,64.9094095 131.201902,64.4758857 131.255332,64.3014095 C131.304183,64.1429333 131.309526,63.8694095 131.071381,63.777981 C130.776753,63.665981 130.624096,63.8861714 130.55769,64.0949333 C130.493574,64.2937905 130.311149,64.7920762 130.015757,65.8595048 C129.535651,67.5943619 129.12653,69.1875048 128.92655,70.2282667 C128.240357,71.0991238 126.832096,72.7943619 126.257342,72.7943619 C125.760443,72.7943619 125.631448,71.7284571 125.631448,71.2134095 C125.631448,70.2671238 126.204675,68.1581714 126.859574,65.8823619 C127.144279,64.9094095 127.264115,64.4758857 127.317545,64.3014095 C127.365632,64.1429333 127.370975,63.8694095 127.13283,63.777981 C126.838965,63.665981 126.686308,63.8861714 126.619139,64.0949333 C126.555786,64.2937905 126.373361,64.7920762 126.078733,65.8595048 C125.397883,68.3151238 124.858241,70.4926476 124.858241,71.2134095 C124.858241,72.1505524 125.097149,73.5669333 126.257342,73.5669333 C126.967197,73.5669333 128.021294,72.5398857 128.805951,71.5242667 C128.857091,72.433981 129.157062,73.5669333 130.195893,73.5669333 C130.791255,73.5669333 131.630105,72.8431238 132.348357,72.0103619 C132.467429,73.1021714 133.390241,73.5669333 134.489371,73.5669333 C135.174801,73.5669333 135.977777,73.1303619 136.426588,72.6488381 C136.673893,73.2057905 137.208192,73.5669333 137.895149,73.5669333 C140.290337,73.5669333 142.279458,71.3787429 142.573323,70.3494095 L142.573323,70.3676952 C142.628279,70.2206476 142.664917,70.0553143 142.573323,70.0553143" id="Fill-3" fill="#EB520D"></path>
                            <path d="M145.875523,65.7910857 C145.875523,65.7910857 146.293803,65.7354667 146.347996,65.7354667 C146.625069,65.7179429 147.011291,65.6988952 147.453233,65.6988952 C148.338643,65.6988952 149.368315,65.7735619 149.368315,66.2695619 C149.368315,66.4158476 149.240083,66.581181 149.093532,66.581181 C148.706547,66.581181 148.338643,66.5628952 147.969214,66.5446095 C147.619629,66.5263238 147.269281,66.5080381 146.919697,66.5080381 C146.496073,66.5080381 146.073214,66.5263238 145.574788,66.6002286 C144.709986,68.9712762 143.948991,70.7640381 143.97647,73.1983238 C143.978759,73.4009905 143.8116,73.5663238 143.608566,73.5663238 C143.368895,73.5663238 143.204025,73.4009905 143.204025,73.1983238 C143.111668,69.908419 144.300866,68.0745143 144.709986,66.693181 C143.603986,66.9857524 142.298006,67.4642286 141.799581,68.3648 C141.782025,68.5857524 141.633185,68.7510857 141.431677,68.7510857 C141.191243,68.7510857 141.045455,68.5118476 141.026373,68.2908952 C141.026373,66.9674667 143.91846,66.085181 145.003851,65.8832762 C145.686228,64.0272762 145.689281,64.6413714 146.131223,62.8950857 C146.167861,62.6939429 146.277774,62.5827048 146.462489,62.5827048 C146.623542,62.5827048 146.856344,62.6870857 146.885349,62.9598476 C146.909774,63.5968 146.367842,64.597181 145.999175,65.4787048 L145.875523,65.7910857 Z" id="Fill-5" fill="#EB520D"></path>
                            <g id="Group-9" transform="translate(145.024155, 62.006095)">
                                <mask id="mask-2" fill="white">
                                    <use xlink:href="#path-1"></use>
                                </mask>
                                <g id="Clip-8"></g>
                                <path d="M9.02462415,1.70910476 C9.09484638,1.61386667 9.16735845,1.52929524 9.23834396,1.45615238 C9.36199614,1.32815238 9.48564831,1.2359619 9.60548406,1.19100952 C9.90774493,1.17500952 10.1565758,0.982247619 10.0642184,0.682819048 C9.98254686,0.42072381 9.63601546,0.359771429 9.37649855,0.454247619 C9.02844058,0.58072381 8.58649855,0.85272381 8.25904928,1.37767619 C7.57743575,2.47481905 6.6164599,5.53310476 6.40045024,6.22872381 C3.60224734,7.49272381 2.37870145,10.6934857 1.58335845,10.6934857 C1.12309758,10.6934857 1.43680773,9.76853333 1.66197681,9.0424381 C1.88561932,8.31558095 2.44434396,6.75062857 2.60234396,6.08777143 C2.76034396,5.42491429 2.61379324,5.33500952 2.44205411,5.25729524 C2.16879807,5.13462857 1.95202512,5.47367619 1.86882705,5.74415238 C1.78562899,6.01234286 0.99333913,8.31405714 0.897928502,8.68662857 C0.802517874,9.0584381 0.124720773,11.5612952 1.20858551,11.5612952 C2.54891401,11.5612952 3.74345507,8.68662857 6.09895266,7.24891429 C5.27460483,10.1814857 4.61512657,13.2039619 4.61512657,15.915581 C4.61512657,16.3011048 4.61512657,16.7620571 5.03874976,16.7620571 C5.3883343,16.7620571 5.37077874,16.3392 5.37077874,15.915581 C5.37077874,12.827581 6.12490435,9.70300952 7.00878841,6.77881905 C8.35369662,6.24700952 9.69860483,6.02605714 10.9328367,5.82339048 L11.2450203,5.76929524 C11.4114164,5.75024762 11.613687,5.6024381 11.613687,5.43786667 C11.613687,5.16205714 11.4480541,4.9959619 11.1709816,4.9959619 C10.1214647,4.9959619 8.50024734,5.45615238 7.28586087,5.8424381 L7.65452754,4.83139048 C8.07815072,3.65500952 8.34224734,2.72015238 9.02462415,1.70910476" id="Fill-7" fill="#EB520D" mask="url(#mask-2)"></path>
                            </g>
                            <path d="M148.899582,64.0113524 C149.111012,64.358019 148.661437,65.078019 148.383601,65.078019 C148.145456,65.078019 147.978297,64.9134476 147.978297,64.6368762 C147.978297,64.3610667 148.145456,64.1766857 148.366045,63.974781 C148.512596,63.8277333 148.733949,63.846019 148.899582,64.0113524" id="Fill-10" fill="#EB520D"></path>
                            <path d="M59.444714,70.9116952 L58.6081536,68.4789333 L57.7631971,70.9116952 L59.444714,70.9116952 Z M59.8080377,71.9456 L57.3991101,71.9456 L56.8716802,73.4526476 L55.5809652,73.4526476 L57.9807333,66.8004571 L59.1989362,66.8004571 L59.2355739,66.8004571 L61.6361053,73.4526476 L60.3179121,73.4526476 L59.8080377,71.9456 Z" id="Fill-12" fill="#EB520D"></path>
                            <polygon id="Fill-14" fill="#EB520D" points="68.035029 66.8000762 65.5352705 73.4515048 64.2437923 73.4515048 61.6982367 66.8000762 63.0622271 66.8000762 64.8895314 71.7189333 66.7076763 66.8000762"></polygon>
                            <path d="M71.9710609,70.9116952 L71.1345005,68.4789333 L70.2887807,70.9116952 L71.9710609,70.9116952 Z M72.3343845,71.9456 L69.925457,71.9456 L69.3980271,73.4526476 L68.1065488,73.4526476 L70.5070802,66.8004571 L71.7252831,66.8004571 L71.7619208,66.8004571 L74.1624522,73.4526476 L72.8442589,73.4526476 L72.3343845,71.9456 Z" id="Fill-16" fill="#EB520D"></path>
                            <polygon id="Fill-18" fill="#EB520D" points="81.2161981 66.8000762 81.2161981 73.4515048 79.9880725 73.4515048 76.9425652 68.7696 76.9425652 73.4515048 75.7060435 73.4515048 75.7060435 66.8000762 76.9425652 66.8000762 79.9880725 71.4827429 79.9880725 66.8000762"></polygon>
                            <path d="M89.0976502,71.7554286 L87.916085,71.2472381 C87.6794667,71.8910476 86.9978531,72.3451429 86.1612928,72.3451429 C85.0156019,72.3451429 84.2240754,71.5184762 84.2240754,70.1211429 C84.2240754,68.7786667 84.9698048,67.8895238 86.1704522,67.8895238 C86.9436599,67.8895238 87.5703169,68.2704762 87.8069353,69.0232381 L88.9892638,68.615619 C88.6610512,67.4628571 87.6061913,66.6819048 86.1704522,66.6819048 C84.2240754,66.6819048 82.9158048,68.0700952 82.9158048,70.1401905 C82.9158048,71.9459048 83.9057855,73.2038095 85.4438048,73.496381 L84.7751671,74.4693333 L85.8987227,74.9462857 L86.4421816,73.5489524 C87.6382493,73.4620952 88.6686841,72.8312381 89.0976502,71.7554286" id="Fill-20" fill="#EB520D"></path>
                            <path d="M95.5329826,70.1214476 C95.5329826,68.7416381 94.7872531,67.8806857 93.6064512,67.8806857 C92.4142,67.8806857 91.6692338,68.7416381 91.6692338,70.1214476 C91.6692338,71.4928762 92.4058039,72.3545905 93.6064512,72.3545905 C94.7796203,72.3545905 95.5329826,71.4928762 95.5329826,70.1214476 M96.8427797,70.1214476 C96.8427797,72.1184 95.5436686,73.5614476 93.5873691,73.5614476 C91.650915,73.5614476 90.3602,72.1275429 90.3602,70.1214476 C90.3602,68.1252571 91.6608377,66.6822095 93.5972918,66.6822095 C95.5513014,66.6822095 96.8427797,68.1252571 96.8427797,70.1214476" id="Fill-22" fill="#EB520D"></path>
                            <polygon id="Fill-24" fill="#EB520D" points="104.123679 66.8000762 104.123679 73.4515048 102.89708 73.4515048 99.8500464 68.7696 99.8500464 73.4515048 98.6142879 73.4515048 98.6142879 66.8000762 99.8500464 66.8000762 102.89708 71.4827429 102.89708 66.8000762"></polygon>
                            <path d="M108.204735,66.6728381 C109.468735,66.6728381 110.305296,67.3440762 110.486957,68.3337905 L109.313788,68.6423619 C109.205402,68.0793143 108.750484,67.8164571 108.168861,67.8164571 C107.513962,67.8164571 107.131557,68.1524571 107.131557,68.633219 C107.131557,69.0416 107.413209,69.2869333 107.877286,69.4050286 L108.951228,69.6770286 C110.168668,69.9856 110.65946,70.6842667 110.65946,71.5558857 C110.65946,72.7536 109.732069,73.5703619 108.251296,73.5703619 C106.904861,73.5703619 105.949991,72.889219 105.776726,71.8370286 L106.950658,71.5284571 C107.031566,72.1090286 107.568156,72.4176 108.286407,72.4176 C109.014581,72.4176 109.414542,72.1181714 109.414542,71.6282667 C109.414542,71.2381714 109.17716,70.9745524 108.686368,70.8473143 L107.60403,70.5936 C106.385827,70.2941714 105.895798,69.5497905 105.895798,68.6789333 C105.895798,67.4896 106.804107,66.6728381 108.204735,66.6728381" id="Fill-26" fill="#EB520D"></path>
                            <polygon id="Fill-28" fill="#3C3C3B" points="113.906245 45.8447238 113.906245 45.0363429 110.083714 45.0363429 110.083714 51.1986286 113.906245 51.1986286 113.906245 50.3925333 110.926381 50.3925333 110.926381 48.4123429 113.737559 48.4123429 113.737559 47.6054857 110.926381 47.6054857 110.926381 45.8447238"></polygon>
                            <path d="M104.47105,47.0775619 C104.47105,47.9865143 103.806229,48.3103238 103.238345,48.3103238 L101.619417,48.3103238 L101.619417,45.8448 L103.238345,45.8448 C103.806229,45.8448 104.47105,46.1678476 104.47105,47.0775619 M103.238345,45.036419 L100.775987,45.036419 L100.775987,51.2002286 L101.619417,51.2002286 L101.619417,49.117181 L103.238345,49.117181 C104.27107,49.117181 105.313717,48.4863238 105.313717,47.0775619 C105.313717,45.5720381 104.195504,45.036419 103.238345,45.036419" id="Fill-30" fill="#3C3C3B"></path>
                            <path d="M95.1640106,48.6862476 C95.1640106,49.9281524 94.273257,50.4950095 93.4450928,50.4950095 C92.6176918,50.4950095 91.7261749,49.9281524 91.7261749,48.6862476 L91.7261749,45.0374857 L90.8850348,45.0374857 L90.8850348,48.8378667 C90.8850348,50.0485333 91.8421942,51.3018667 93.4450928,51.3018667 C95.0487546,51.3018667 96.0066773,50.0485333 96.0066773,48.8378667 L96.0066773,45.0374857 L95.1640106,45.0374857 L95.1640106,48.6862476 Z" id="Fill-32" fill="#3C3C3B"></path>
                            <path d="M83.4397237,50.4942476 C82.1329797,50.4942476 81.2559652,49.539581 81.2559652,48.1186286 C81.2559652,46.6992 82.1329797,45.7430095 83.4397237,45.7430095 C84.7464676,45.7430095 85.6250087,46.6992 85.6250087,48.1186286 C85.6250087,49.539581 84.7464676,50.4942476 83.4397237,50.4942476 M83.4397237,44.9353905 C81.6856947,44.9353905 80.4132986,46.2740571 80.4132986,48.1186286 C80.4132986,49.9327238 81.7146995,51.3026286 83.4397237,51.3026286 C85.1655111,51.3026286 86.4676754,49.9327238 86.4676754,48.1186286 C86.4676754,46.2443429 85.2227575,44.9353905 83.4397237,44.9353905" id="Fill-34" fill="#3C3C3B"></path>
                            <path d="M75.5530812,47.0180571 C75.5530812,47.7830095 74.8699411,48.1913905 74.3776222,48.1913905 L72.6083275,48.1913905 L72.6083275,45.8447238 L74.3776222,45.8447238 C74.8699411,45.8447238 75.5530812,46.2531048 75.5530812,47.0180571 M76.3957478,47.0180571 C76.3957478,45.9072 75.5095739,45.0363429 74.3776222,45.0363429 L71.7656609,45.0363429 L71.7656609,51.1993905 L72.6083275,51.1993905 L72.6083275,48.9982476 L74.2432841,48.9982476 L75.8301536,51.1993905 L76.8125014,51.1993905 L75.1340377,48.8885333 C75.4889652,48.7171048 76.3957478,48.1685333 76.3957478,47.0180571" id="Fill-36" fill="#3C3C3B"></path>
                            <path d="M64.6386396,48.7256381 L66.5033449,48.7256381 C66.4560213,49.7884952 65.748456,50.494019 64.711915,50.494019 C63.405171,50.494019 62.5273932,49.5393524 62.5273932,48.1184 C62.5273932,46.7195429 63.4082242,45.7435429 64.669171,45.7435429 C65.7018957,45.7435429 66.1728425,46.3385905 66.4369391,46.7865905 L66.4972386,46.8871619 L67.223886,46.4505905 L67.1735092,46.3530667 C66.7033256,45.4517333 65.8049391,44.9351619 64.711915,44.9351619 C62.9571227,44.9351619 61.6839633,46.2738286 61.6839633,48.1184 C61.6839633,49.9926857 62.9288812,51.3008762 64.711915,51.3008762 C65.4187169,51.3008762 66.0873546,51.0090667 66.5796734,50.4917333 L66.6918763,51.1995429 L67.3490647,51.1995429 L67.3490647,47.9172571 L64.6386396,47.9172571 L64.6386396,48.7256381 Z" id="Fill-38" fill="#3C3C3B"></path>
                            <path d="M149.297635,43.4138667 C146.972669,43.4138667 146.410128,45.9251048 145.458311,50.0523429 C144.128669,49.203581 145.108727,44.0873905 142.154814,44.0873905 C141.735007,44.0873905 141.257954,44.1910095 140.670224,44.4233905 C142.547142,48.0226286 142.210533,52.2679619 145.796446,52.2679619 C146.103287,52.2679619 146.412417,52.242819 146.749026,52.1910095 L150.473857,43.5944381 C150.026572,43.491581 149.632717,43.4138667 149.297635,43.4138667" id="Fill-40" fill="#3C3C3B"></path>
                            <path d="M135.420655,50.220419 C134.521505,48.7263238 135.108471,44.0870857 132.406443,44.0870857 C131.985872,44.0870857 131.510346,44.1899429 130.921853,44.4230857 C132.588104,47.6185143 132.461399,51.3236571 134.920703,52.1145143 C134.679505,52.9137524 134.342897,53.6665143 133.834549,53.6665143 C133.442984,53.6665143 133.022414,53.5369905 132.574365,53.5369905 C131.510346,53.5369905 131.201979,54.0025143 130.866133,55.0394667 C131.76223,55.5308952 132.574365,55.7640381 133.274298,55.7640381 C134.927573,55.7640381 136.168674,54.2676571 136.999892,52.1907048 C137.520452,50.8908952 140.446124,43.5948952 140.446124,43.5948952 C140.109515,43.4912762 139.801911,43.4135619 139.549264,43.4135619 C137.059428,43.4135619 136.55108,45.9468952 135.420655,50.220419" id="Fill-42" fill="#3C3C3B"></path>
                            <path d="M125.597787,50.0522667 C124.268908,49.2027429 125.24744,44.0873143 122.29429,44.0873143 C121.872957,44.0873143 121.396667,44.1909333 120.808937,44.4233143 C122.686618,48.0225524 122.348483,52.2686476 125.934396,52.2686476 C126.243527,52.2686476 126.551894,52.2427429 126.886976,52.1909333 L130.61257,43.5943619 C130.164522,43.4915048 129.772957,43.4137905 129.436348,43.4137905 C127.111382,43.4137905 126.548841,45.9250286 125.597787,50.0522667" id="Fill-44" fill="#3C3C3B"></path>
                            <polygon id="Fill-46" fill="#3C3C3B" points="61.7482319 39.1626667 150.538126 39.1626667 150.538126 38.6834286 61.7482319 38.6834286"></polygon>
                            <path d="M146.090235,24.1750857 C147.587037,24.1750857 148.186979,25.2920381 148.267124,26.5857524 L143.714892,26.5857524 C143.833964,25.2105143 144.593433,24.1750857 146.090235,24.1750857 M143.504988,28.4196571 L150.613462,28.4196571 C150.613462,24.8326095 149.535703,22.2223238 145.722331,22.2223238 C142.528747,22.2223238 140.951037,24.6718476 140.951037,27.6432762 C140.951037,31.0108952 142.927945,32.9621333 146.32151,32.9621333 C147.759539,32.9621333 148.876225,32.6840381 149.85552,32.1461333 L149.85552,29.9739429 C148.857143,30.532419 147.73893,31.0108952 146.442109,31.0108952 C144.783491,31.0108952 143.625587,30.0729905 143.504988,28.4196571" id="Fill-48" fill="#676767"></path>
                            <path d="M132.375682,30.6118095 C132.097846,30.7908571 131.638349,30.8906667 131.158243,30.8906667 C130.14002,30.8906667 129.901112,30.0739048 129.901112,29.1977143 L129.901112,19.2228571 L127.226561,20.08 L127.226561,29.6358095 C127.226561,31.6670476 128.383701,32.9630476 130.481209,32.9630476 C131.279605,32.9630476 131.897102,32.8838095 132.455827,32.7230476 L132.375682,30.6118095 Z" id="Fill-49" fill="#676767"></path>
                            <path d="M139.613456,30.6118095 C139.334094,30.7908571 138.875359,30.8906667 138.396016,30.8906667 C137.377031,30.8906667 137.137359,30.0739048 137.137359,29.1977143 L137.137359,19.2228571 L134.463572,20.08 L134.463572,29.6358095 C134.463572,31.6670476 135.621475,32.9630476 137.717456,32.9630476 C138.515852,32.9630476 139.134113,32.8838095 139.692838,32.7230476 L139.613456,30.6118095 Z" id="Fill-50" fill="#676767"></path>
                            <path d="M119.551883,24.1750857 C121.047922,24.1750857 121.648627,25.2920381 121.728772,26.5857524 L117.177303,26.5857524 C117.295613,25.2105143 118.053555,24.1750857 119.551883,24.1750857 M117.177303,28.4196571 L124.28196,28.4196571 C124.28196,24.8326095 123.204965,22.2223238 119.392357,22.2223238 C116.196482,22.2223238 114.619535,24.6718476 114.619535,27.6432762 C114.619535,31.0108952 116.596443,32.9621333 119.990772,32.9621333 C121.428038,32.9621333 122.547014,32.6840381 123.523255,32.1461333 L123.523255,29.9739429 C122.525642,30.532419 121.408192,31.0108952 120.111371,31.0108952 C118.454279,31.0108952 117.295613,30.0729905 117.177303,28.4196571" id="Fill-51" fill="#676767"></path>
                            <path d="M108.931535,22.4622476 L108.931535,27.4824381 C108.931535,28.7967238 108.513255,30.8904381 106.573748,30.8904381 C104.858646,30.8904381 104.838801,29.1974857 104.838801,27.9411048 L104.838801,22.4622476 L102.16425,22.4622476 L102.16425,28.9376762 C102.16425,31.2492952 103.222163,32.962819 105.658569,32.962819 C107.054617,32.962819 108.213284,32.3251048 109.032289,31.3292952 L109.072743,31.3292952 L109.072743,32.7220571 L111.606849,32.7220571 L111.606849,22.4622476 L108.931535,22.4622476 Z" id="Fill-52" fill="#676767"></path>
                            <path d="M99.1369855,30.6118095 C98.8583865,30.7908571 98.3996522,30.8906667 97.9187826,30.8906667 C96.9013237,30.8906667 96.6616522,30.0739048 96.6616522,29.1977143 L96.6616522,24.4129524 L99.0377585,24.4129524 L99.0377585,22.4624762 L96.6616522,22.4624762 L96.6616522,19.2228571 L93.9871014,20.08 L93.9871014,22.4624762 L92.00943,22.4624762 L92.00943,24.4129524 L93.9871014,24.4129524 L93.9871014,29.6358095 C93.9871014,31.6670476 95.1450048,32.9630476 97.2409855,32.9630476 C98.0401449,32.9630476 98.6584058,32.8838095 99.2171304,32.7230476 L99.1369855,30.6118095 Z" id="Fill-53" fill="#676767"></path>
                            <path d="M86.8905353,22.4622476 L86.8905353,27.4824381 C86.8905353,28.7967238 86.4714918,30.8904381 84.5335111,30.8904381 C82.8184097,30.8904381 82.7970377,29.1974857 82.7970377,27.9411048 L82.7970377,22.4622476 L80.1232502,22.4622476 L80.1232502,28.9376762 C80.1232502,31.2492952 81.1811633,32.962819 83.6168058,32.962819 C85.0136174,32.962819 86.1715208,32.3251048 86.9905256,31.3292952 L87.0286899,31.3292952 L87.0286899,32.7220571 L89.5666126,32.7220571 L89.5666126,22.4622476 L86.8905353,22.4622476 Z" id="Fill-54" fill="#676767"></path>
                            <path d="M73.5870879,22.220419 C72.3284309,22.220419 70.9926821,22.7994667 70.3728947,24.0337524 C69.7943246,22.7583238 68.7753391,22.220419 67.3380734,22.220419 C66.3404599,22.220419 65.122257,22.6402286 64.2849333,23.8950857 L64.2444792,23.8950857 L64.2444792,22.4588952 L61.7477739,22.4588952 L61.7477739,32.7225143 L64.4238512,32.7225143 L64.4238512,27.740419 C64.4238512,26.4048 64.642914,24.2935619 66.4190783,24.2935619 C67.9570976,24.2935619 67.9570976,25.6482286 67.9570976,26.6036571 L67.9570976,32.7225143 L70.6324116,32.7225143 L70.6324116,27.740419 C70.6324116,26.4048 70.8514744,24.2935619 72.6291652,24.2935619 C73.9824696,24.2935619 74.096199,25.3747048 74.096199,27.0135619 L74.096199,32.7225143 L76.8402087,32.7225143 L76.8402087,26.2463238 C76.8402087,22.7865143 74.8068174,22.220419 73.5870879,22.220419" id="Fill-55" fill="#676767"></path>
                            <path d="M145.88224,9.40792381 C147.379805,9.40792381 147.97822,10.5233524 148.058365,11.8208762 L143.506897,11.8208762 C143.625969,10.4448762 144.383911,9.40792381 145.88224,9.40792381 M143.506897,13.6517333 L150.61308,13.6517333 C150.61308,10.0669714 149.536085,7.45592381 145.72195,7.45592381 C142.528365,7.45592381 140.951418,9.90697143 140.951418,12.8761143 C140.951418,16.2437333 142.927563,18.1972571 146.320365,18.1972571 C147.759157,18.1972571 148.876607,17.9176381 149.855901,17.3789714 L149.855901,15.2075429 C148.855998,15.7652571 147.740839,16.2437333 146.440964,16.2437333 C144.785399,16.2437333 143.625969,15.3081143 143.506897,13.6517333" id="Fill-56" fill="#BB2B21"></path>
                            <polygon id="Fill-57" fill="#BB2B21" points="136.254773 17.9580952 138.929324 17.9580952 138.929324 7.69447619 136.254773 7.69447619"></polygon>
                            <polygon id="Fill-58" fill="#BB2B21" points="136.254773 6.56152381 138.929324 6.56152381 138.929324 4.50438095 136.254773 4.50438095"></polygon>
                            <path d="M130.261001,7.45630476 C128.862663,7.45630476 127.726895,7.91420952 126.887281,9.08982857 L126.846827,9.08982857 L126.846827,7.69401905 L124.310431,7.69401905 L124.310431,17.9576381 L126.987271,17.9576381 L126.987271,12.9359238 C126.987271,11.6193524 127.405552,9.52868571 129.342769,9.52868571 C131.059397,9.52868571 131.079243,11.2216381 131.079243,12.4772571 L131.079243,17.9576381 L133.754557,17.9576381 L133.754557,11.4814476 C133.754557,9.16906667 132.694354,7.45630476 130.261001,7.45630476" id="Fill-59" fill="#BB2B21"></path>
                            <path d="M116.946028,16.124419 C114.907294,16.124419 114.370704,14.2699429 114.370704,12.5762286 C114.370704,11.0417524 115.208028,9.52860952 116.946028,9.52860952 C118.702347,9.52860952 119.540434,11.0021333 119.540434,12.5762286 C119.540434,14.2905143 119.001555,16.124419 116.946028,16.124419 M116.946028,7.45622857 C113.910443,7.45622857 111.574791,9.50727619 111.574791,12.8969905 C111.574791,15.8463238 113.550936,18.1968 116.946028,18.1968 C120.358675,18.1968 122.335584,15.8463238 122.335584,12.8969905 C122.335584,9.50727619 119.999168,7.45622857 116.946028,7.45622857" id="Fill-60" fill="#BB2B21"></path>
                            <path d="M106.347205,7.45630476 C105.088548,7.45630476 103.752036,8.03611429 103.132248,9.2711619 C102.553678,7.99497143 101.534693,7.45630476 100.097427,7.45630476 C99.1005768,7.45630476 97.8823739,7.87611429 97.044287,9.13097143 L97.0038329,9.13097143 L97.0038329,7.69401905 L94.5063643,7.69401905 L94.5063643,17.9584 L97.1839681,17.9584 L97.1839681,12.9755429 C97.1839681,11.6414476 97.4015043,9.52944762 99.1784319,9.52944762 C100.717214,9.52944762 100.717214,10.8841143 100.717214,11.8410667 L100.717214,17.9584 L103.392529,17.9584 L103.392529,12.9755429 C103.392529,11.6414476 103.611591,9.52944762 105.389282,9.52944762 C106.742586,9.52944762 106.855553,10.6113524 106.855553,12.2494476 L106.855553,17.9584 L109.600326,17.9584 L109.600326,11.4822095 C109.600326,8.0231619 107.566934,7.45630476 106.347205,7.45630476" id="Fill-61" fill="#BB2B21"></path>
                            <path d="M92.1549121,7.45630476 C90.5581198,7.45630476 89.4589894,9.07001905 89.3399169,10.0269714 L89.3002261,10.0269714 L89.3002261,7.69401905 L86.9233565,7.69401905 L86.9233565,17.9576381 L89.5994338,17.9576381 L89.5994338,14.190019 C89.5994338,12.7164952 89.5994338,10.0056381 91.7740329,10.0056381 C92.2549024,10.0056381 92.7334821,10.0856381 92.9731536,10.2258286 L92.9731536,7.53554286 C92.693028,7.45630476 92.414429,7.45630476 92.1549121,7.45630476" id="Fill-62" fill="#BB2B21"></path>
                            <path d="M81.2213884,15.3260952 C80.8015816,15.8845714 80.1619488,16.2434286 79.3444705,16.2434286 C78.3857845,16.2434286 77.6476879,15.8647619 77.6476879,14.9893333 C77.6476879,13.4137143 79.4230889,13.2140952 80.6222097,13.2140952 L81.7808763,13.2140952 C81.7808763,14.0102857 81.659514,14.7485714 81.2213884,15.3260952 M84.2546831,15.6651429 C84.235601,14.9085714 84.2149923,14.1299048 84.2149923,13.0944762 L84.2149923,11.7801905 C84.2149923,8.75009524 82.9166444,7.45638095 79.7833594,7.45638095 C78.6453014,7.45638095 77.2477266,7.75352381 76.2104222,8.232 L76.2898039,10.5230476 C77.1881903,9.84647619 78.3262483,9.40761905 79.4643063,9.40761905 C81.0404899,9.40761905 81.7808763,9.96685714 81.7808763,11.6194286 L80.3023932,11.6194286 C79.1841807,11.6194286 77.8659874,11.7207619 76.8485285,12.2182857 C75.8303063,12.7158095 75.0906831,13.6133333 75.0906831,15.1485714 C75.0906831,17.0990476 76.8699005,18.1969524 78.6857556,18.1969524 C79.9031952,18.1969524 81.2412338,17.5592381 81.8594947,16.4232381 L81.8991855,16.4232381 C81.9197942,16.7409524 81.9197942,17.4205714 82.0190213,17.9577143 L84.3752821,17.9577143 C84.3149826,17.1607619 84.2745285,16.4430476 84.2546831,15.6651429" id="Fill-63" fill="#BB2B21"></path>
                            <path d="M70.1929121,16.2940952 C70.1929121,16.5401905 70.2577913,16.8937143 70.6837043,17.4041905 C71.0325256,17.8224762 71.4309604,17.9573333 71.6202551,17.9573333 L72.9628734,17.9573333 L72.9628734,4.176 L70.1929121,5.06361905 L70.1929121,9.67619048 L64.5171246,9.67619048 L64.5171246,4.176 L61.7479266,5.06361905 L61.7479266,16.2940952 C61.7479266,16.5401905 61.8112792,16.8937143 62.2379556,17.4041905 C62.5867768,17.8224762 62.9859749,17.9573333 63.173743,17.9573333 L64.5171246,17.9573333 L64.5171246,11.9062857 L70.1929121,11.9062857 L70.1929121,16.2940952 Z" id="Fill-64" fill="#BB2B21"></path>
                            <path d="M50.6683865,42.8201143 C51.3675556,41.6124952 51.8011014,40.2517333 51.802628,39.0296381 L51.802628,28.5443048 L40.8693333,37.1713524 L50.6683865,42.8201143 Z" id="Fill-65" fill="#F17E00"></path>
                            <path d="M51.802857,28.5448381 L51.802857,18.0633143 C51.8013304,16.8404571 51.3670213,15.4804571 50.6678522,14.2728381 L40.8695623,19.9177905 L51.802857,28.5448381 Z" id="Fill-66" fill="#FAB900"></path>
                            <path d="M40.875058,37.167619 L51.8030097,28.5451429 L40.8720048,19.9188571 C41.2948647,20.6495238 41.5566715,21.472381 41.5566715,22.2129524 L41.5566715,34.8788571 C41.5566715,35.6171429 41.295628,36.4377143 40.875058,37.167619" id="Fill-67" fill="#F49303"></path>
                            <path d="M38.8538792,50.9362286 L25.9009324,45.7979429 L25.9009324,57.093181 C27.2985072,57.093181 28.6953188,56.788419 29.7570483,56.1781333 L36.566314,52.2535619 L38.8538792,50.9362286 Z" id="Fill-68" fill="#D83A14"></path>
                            <path d="M40.8697913,37.1713524 L38.8539556,50.9359238 L47.9416271,45.6978286 C49.0033565,45.086781 49.9681488,44.030019 50.6688444,42.8201143 L40.8697913,37.1713524 Z" id="Fill-69" fill="#EE6800"></path>
                            <path d="M39.2236145,38.912381 L28.2353633,45.2460952 C27.5949671,45.6140952 26.7515372,45.8 25.9081072,45.8 L38.8541845,50.936 L40.869257,37.1782857 C40.4463971,37.9074286 39.8640106,38.544381 39.2236145,38.912381" id="Fill-70" fill="#EB520D"></path>
                            <path d="M25.9007797,11.2911238 L25.9007797,0.000457142857 C24.5016783,0.000457142857 23.1033401,0.306742857 22.0408473,0.919314286 L12.9501227,6.15740952 L25.9007797,11.2911238 Z" id="Fill-71" fill="#FBD500"></path>
                            <path d="M10.9320734,19.9176381 L12.9486725,6.1576381 L3.86100097,11.3942095 C2.80003478,12.006781 1.83447923,13.062781 1.13531014,14.2726857 L10.9320734,19.9176381 Z" id="Fill-72" fill="#FAB900"></path>
                            <path d="M12.5790899,18.1795048 L23.5681043,11.8457905 C24.2100271,11.4770286 25.0542203,11.2926476 25.8991768,11.2918857 L25.9007034,11.2911238 L12.9492831,6.15664762 L10.9319208,19.9174095 C11.3547807,19.1867429 11.9379304,18.5490286 12.5790899,18.1795048" id="Fill-73" fill="#FCC800"></path>
                            <path d="M40.8697913,19.9176381 L50.6680812,14.2726857 C49.9681488,13.0635429 49.0033565,12.006781 47.9416271,11.3942095 L38.8493758,6.15611429 L40.8697913,19.9176381 Z" id="Fill-74" fill="#FCC800"></path>
                            <path d="M29.762315,0.919085714 C28.7005855,0.305752381 27.2999575,-0.000533333333 25.900856,-0.000533333333 L25.900856,11.2908952 L38.8499865,6.15489524 L29.762315,0.919085714 Z" id="Fill-75" fill="#FAE016"></path>
                            <path d="M28.2349816,11.8461714 L39.2232329,18.1798857 C39.8643923,18.5486476 40.447542,19.1856 40.8696386,19.9155048 L38.8499865,6.15550476 L25.900856,11.2907429 L25.9023826,11.2922667 C26.7481024,11.2922667 27.5930589,11.4774095 28.2349816,11.8461714" id="Fill-76" fill="#FBD500"></path>
                            <path d="M10.9320734,19.9176381 L1.13531014,14.2726857 C0.434614493,15.4825905 0.00030531401,16.8441143 0.00030531401,18.0692571 L0.00030531401,28.5477333 L10.9320734,19.9176381 Z" id="Fill-77" fill="#F49303"></path>
                            <path d="M0.000152657005,28.5485714 L0.000152657005,39.0232381 C0.000152657005,40.247619 0.434461836,41.6114286 1.1343942,42.8198095 L10.9319208,37.1710476 L0.000152657005,28.5485714 Z" id="Fill-78" fill="#EE6800"></path>
                            <path d="M10.2455749,34.8789333 L10.2455749,22.2122667 C10.2455749,21.4724571 10.5081449,20.6496 10.9310048,19.9181714 L0,28.5482667 L10.928715,37.1676952 C10.5073816,36.4385524 10.2455749,35.6164571 10.2455749,34.8789333" id="Fill-79" fill="#F17E00"></path>
                            <path d="M10.9320734,37.1713524 L1.13454686,42.8201143 C1.83447923,44.030019 2.80003478,45.086781 3.86100097,45.6978286 L12.9517256,50.9366857 L10.9320734,37.1713524 Z" id="Fill-80" fill="#EB520D"></path>
                            <path d="M22.0403894,56.1750857 C23.1028821,56.7868952 24.5019836,57.092419 25.9003217,57.092419 L25.9003217,45.7979429 L12.9527179,50.9385143 L22.0403894,56.1750857 Z" id="Fill-81" fill="#BB2B21"></path>
                            <path d="M23.568028,45.2457143 L12.5790135,38.912 C11.9378541,38.5432381 11.3554676,37.9055238 10.9326077,37.176381 L12.9514966,50.9386667 L25.8937575,45.800381 C25.0503275,45.799619 24.2076609,45.6144762 23.568028,45.2457143" id="Fill-82" fill="#D83A14"></path>
                        </g>
                    </g>
                </g>
            </g>
        </g>
    </g>
</svg>